<svg width="1064" height="255" viewBox="0 0 1064 255" fill="none" xmlns="http://www.w3.org/2000/svg">
<path d="M352.543 40.9219C369.866 117.389 376.713 264.391 250.665 238.985C193.746 214.332 150.438 95.6609 352.543 40.9219Z" stroke="#F29600" stroke-width="24"/>
<path d="M188.427 18C242.118 76.9926 322.874 203.359 202.909 242.685C142.016 248.812 44.7485 165.306 188.427 18Z" stroke="#F29600" stroke-width="24"/>
<path d="M19.3953 32.8451C96.9128 50.0866 234.247 107.73 155.359 213.394C107.692 255.371 -19.8629 243.823 19.3953 32.8451Z" stroke="#F29600" stroke-width="24"/>
<path d="M483.267 215.392V59.0364H490.503L496.534 74.672C499.911 69.0592 504.334 64.4888 509.801 60.9608C515.43 57.2724 521.702 55.4282 528.617 55.4282C537.462 55.4282 544.457 56.9517 549.603 59.9986C554.749 62.8852 558.448 66.8943 560.7 72.026C562.951 76.9973 564.077 82.6902 564.077 89.1048V215.392H547.191V89.1048C547.191 83.6524 545.985 79.082 543.573 75.3936C541.321 71.7052 536.416 69.861 528.858 69.861C523.873 69.861 519.129 71.2241 514.626 73.9503C510.284 76.5162 506.746 79.7235 504.012 83.5722C501.439 87.2606 500.152 90.7084 500.152 93.9157V215.392H483.267Z" fill="#F29600"/>
<path d="M681.165 172.093H698.05V185.323C698.05 195.747 694.834 204.006 688.401 210.1C681.969 216.033 671.998 219 658.49 219C644.981 219 634.93 216.033 628.337 210.1C621.743 204.006 618.446 195.747 618.446 185.323V89.1048C618.446 78.6811 621.663 70.5025 628.095 64.569C634.528 58.4752 644.499 55.4282 658.007 55.4282C671.516 55.4282 681.567 58.4752 688.16 64.569C694.754 70.5025 698.05 78.6811 698.05 89.1048V142.025H635.332V185.323C635.332 191.257 637.181 195.988 640.88 199.516C644.74 202.883 650.61 204.567 658.49 204.567C666.209 204.567 671.918 202.883 675.617 199.516C679.315 195.988 681.165 191.257 681.165 185.323V172.093ZM635.332 127.592H681.165V89.1048C681.165 83.0109 679.235 78.2802 675.375 74.9125C671.677 71.5449 665.887 69.861 658.007 69.861C650.288 69.861 644.579 71.5449 640.88 74.9125C637.181 78.2802 635.332 83.0109 635.332 89.1048V127.592Z" fill="#F29600"/>
<path d="M813.838 172.093H830.724V185.323C830.724 195.747 827.507 204.006 821.075 210.1C814.642 216.033 804.671 219 791.163 219C777.654 219 767.603 216.033 761.01 210.1C754.416 204.006 751.12 195.747 751.12 185.323V89.1048C751.12 78.6811 754.336 70.5025 760.769 64.569C767.201 58.4752 777.172 55.4282 790.68 55.4282C804.189 55.4282 814.24 58.4752 820.833 64.569C827.427 70.5025 830.724 78.6811 830.724 89.1048V111.957H813.838V89.1048C813.838 83.0109 811.908 78.2802 808.049 74.9125C804.35 71.5449 798.56 69.861 790.68 69.861C782.961 69.861 777.252 71.5449 773.554 74.9125C769.855 78.2802 768.005 83.0109 768.005 89.1048V185.323C768.005 191.257 769.855 195.988 773.554 199.516C777.413 202.883 783.283 204.567 791.163 204.567C798.882 204.567 804.591 202.883 808.29 199.516C811.989 195.988 813.838 191.257 813.838 185.323V172.093Z" fill="#F29600"/>
<path d="M935.713 59.0364V73.4692H899.529V188.691C899.529 193.021 900.655 196.79 902.906 199.997C905.158 203.044 908.535 204.567 913.038 204.567C917.38 204.567 920.596 203.044 922.687 199.997C924.938 196.79 926.064 193.021 926.064 188.691V160.066H942.949V187.729C942.949 198.153 940.135 206.01 934.507 211.303C929.039 216.434 921.883 219 913.038 219C904.193 219 896.876 216.434 891.086 211.303C885.458 206.01 882.643 198.153 882.643 187.729V59.0364H935.713Z" fill="#F29600"/>
<path d="M1056.3 215.392L1050.02 199.997C1046.81 205.61 1042.47 210.18 1037 213.708C1031.53 217.236 1025.42 219 1018.67 219C1010.14 219 1003.31 217.557 998.162 214.67C993.015 211.623 989.317 207.534 987.065 202.402C984.975 197.271 983.929 191.578 983.929 185.323V161.269C983.929 154.854 984.975 149.161 987.065 144.19C989.317 139.058 993.015 135.049 998.162 132.163C1003.31 129.116 1010.14 127.592 1018.67 127.592H1046.65V88.1426C1046.65 82.5298 1044.8 78.1198 1041.1 74.9125C1037.56 71.5449 1032.09 69.861 1024.7 69.861C1017.46 69.861 1012.07 71.5449 1008.53 74.9125C1005 78.1198 1003.23 82.5298 1003.23 88.1426V102.335H986.342V89.1048C986.342 78.5207 989.477 70.262 995.749 64.3285C1002.02 58.395 1011.67 55.4282 1024.7 55.4282C1037.72 55.4282 1047.45 58.395 1053.88 64.3285C1060.32 70.262 1063.53 78.5207 1063.53 89.1048V215.392H1056.3ZM1046.65 142.025H1018.67C1011.43 142.025 1006.6 143.869 1004.19 147.558C1001.94 151.246 1000.81 155.816 1000.81 161.269V185.323C1000.81 190.776 1001.94 195.346 1004.19 199.035C1006.6 202.723 1011.43 204.567 1018.67 204.567C1023.49 204.567 1027.91 203.284 1031.93 200.718C1036.11 198.153 1039.57 195.106 1042.31 191.578C1045.04 187.889 1046.49 184.441 1046.65 181.234V142.025Z" fill="#F29600"/>
<path d="M882.755 43H898.837V59.0364H882.755V43Z" fill="#F29600"/>
<path d="M871.498 59.0364H882.755V72.6674H871.498V59.0364Z" fill="#F29600"/>
<path d="M481.133 215.392V59.0364H488.37L494.401 74.672C497.778 69.0592 502.2 64.4888 507.668 60.9608C513.297 57.2724 519.568 55.4282 526.483 55.4282C535.328 55.4282 542.324 56.9517 547.47 59.9986C552.616 62.8852 556.315 66.8943 558.566 72.026C560.818 76.9973 561.943 82.6902 561.943 89.1048V215.392H545.058V89.1048C545.058 83.6524 543.852 79.082 541.439 75.3936C539.188 71.7052 534.283 69.861 526.725 69.861C521.739 69.861 516.995 71.2241 512.492 73.9503C508.15 76.5162 504.612 79.7235 501.879 83.5722C499.306 87.2606 498.019 90.7084 498.019 93.9157V215.392H481.133Z" fill="#F29600"/>
<path d="M679.031 172.093H695.917V185.323C695.917 195.747 692.701 204.006 686.268 210.1C679.835 216.033 669.865 219 656.356 219C642.848 219 632.797 216.033 626.203 210.1C619.61 204.006 616.313 195.747 616.313 185.323V89.1048C616.313 78.6811 619.529 70.5025 625.962 64.569C632.395 58.4752 642.365 55.4282 655.874 55.4282C669.382 55.4282 679.433 58.4752 686.027 64.569C692.62 70.5025 695.917 78.6811 695.917 89.1048V142.025H633.199V185.323C633.199 191.257 635.048 195.988 638.747 199.516C642.607 202.883 648.476 204.567 656.356 204.567C664.075 204.567 669.784 202.883 673.483 199.516C677.182 195.988 679.031 191.257 679.031 185.323V172.093ZM633.199 127.592H679.031V89.1048C679.031 83.0109 677.102 78.2802 673.242 74.9125C669.543 71.5449 663.754 69.861 655.874 69.861C648.155 69.861 642.446 71.5449 638.747 74.9125C635.048 78.2802 633.199 83.0109 633.199 89.1048V127.592Z" fill="#F29600"/>
<path d="M811.705 172.093H828.59V185.323C828.59 195.747 825.374 204.006 818.941 210.1C812.509 216.033 802.538 219 789.03 219C775.521 219 765.47 216.033 758.877 210.1C752.283 204.006 748.986 195.747 748.986 185.323V89.1048C748.986 78.6811 752.203 70.5025 758.635 64.569C765.068 58.4752 775.039 55.4282 788.547 55.4282C802.056 55.4282 812.107 58.4752 818.7 64.569C825.294 70.5025 828.59 78.6811 828.59 89.1048V111.957H811.705V89.1048C811.705 83.0109 809.775 78.2802 805.915 74.9125C802.216 71.5449 796.427 69.861 788.547 69.861C780.828 69.861 775.119 71.5449 771.42 74.9125C767.721 78.2802 765.872 83.0109 765.872 89.1048V185.323C765.872 191.257 767.721 195.988 771.42 199.516C775.28 202.883 781.15 204.567 789.03 204.567C796.749 204.567 802.458 202.883 806.157 199.516C809.855 195.988 811.705 191.257 811.705 185.323V172.093Z" fill="#F29600"/>
<path d="M933.579 59.0364V73.4692H897.396V188.691C897.396 193.021 898.522 196.79 900.773 199.997C903.024 203.044 906.401 204.567 910.904 204.567C915.246 204.567 918.463 203.044 920.553 199.997C922.805 196.79 923.93 193.021 923.93 188.691V160.066H940.816V187.729C940.816 198.153 938.002 206.01 932.373 211.303C926.906 216.434 919.749 219 910.904 219C902.059 219 894.742 216.434 888.953 211.303C883.324 206.01 880.51 198.153 880.51 187.729V59.0364H933.579Z" fill="#F29600"/>
<path d="M1054.16 215.392L1047.89 199.997C1044.68 205.61 1040.33 210.18 1034.87 213.708C1029.4 217.236 1023.29 219 1016.53 219C1008.01 219 1001.17 217.557 996.028 214.67C990.882 211.623 987.183 207.534 984.932 202.402C982.841 197.271 981.796 191.578 981.796 185.323V161.269C981.796 154.854 982.841 149.161 984.932 144.19C987.183 139.058 990.882 135.049 996.028 132.163C1001.17 129.116 1008.01 127.592 1016.53 127.592H1044.51V88.1426C1044.51 82.5298 1042.66 78.1198 1038.97 74.9125C1035.43 71.5449 1029.96 69.861 1022.56 69.861C1015.33 69.861 1009.94 71.5449 1006.4 74.9125C1002.86 78.1198 1001.09 82.5298 1001.09 88.1426V102.335H984.208V89.1048C984.208 78.5207 987.344 70.262 993.616 64.3285C999.888 58.395 1009.54 55.4282 1022.56 55.4282C1035.59 55.4282 1045.32 58.395 1051.75 64.3285C1058.18 70.262 1061.4 78.5207 1061.4 89.1048V215.392H1054.16ZM1044.51 142.025H1016.53C1009.3 142.025 1004.47 143.869 1002.06 147.558C999.807 151.246 998.682 155.816 998.682 161.269V185.323C998.682 190.776 999.807 195.346 1002.06 199.035C1004.47 202.723 1009.3 204.567 1016.53 204.567C1021.36 204.567 1025.78 203.284 1029.8 200.718C1033.98 198.153 1037.44 195.106 1040.17 191.578C1042.91 187.889 1044.35 184.441 1044.51 181.234V142.025Z" fill="#F29600"/>
<path d="M880.622 43H896.703V59.0364H880.622V43Z" fill="#F29600"/>
<path d="M869.364 59.0364H880.622V72.6674H869.364V59.0364Z" fill="#F29600"/>
<path d="M479 215.392V59.0364H486.237L492.267 74.672C495.644 69.0592 500.067 64.4888 505.535 60.9608C511.163 57.2724 517.435 55.4282 524.35 55.4282C533.195 55.4282 540.191 56.9517 545.337 59.9986C550.483 62.8852 554.182 66.8943 556.433 72.026C558.684 76.9973 559.81 82.6902 559.81 89.1048V215.392H542.924V89.1048C542.924 83.6524 541.718 79.082 539.306 75.3936C537.055 71.7052 532.15 69.861 524.591 69.861C519.606 69.861 514.862 71.2241 510.359 73.9503C506.017 76.5162 502.479 79.7235 499.745 83.5722C497.172 87.2606 495.886 90.7084 495.886 93.9157V215.392H479Z" fill="#F29600"/>
<path d="M676.898 172.093H693.784V185.323C693.784 195.747 690.567 204.006 684.135 210.1C677.702 216.033 667.732 219 654.223 219C640.714 219 630.663 216.033 624.07 210.1C617.477 204.006 614.18 195.747 614.18 185.323V89.1048C614.18 78.6811 617.396 70.5025 623.829 64.569C630.261 58.4752 640.232 55.4282 653.741 55.4282C667.249 55.4282 677.3 58.4752 683.894 64.569C690.487 70.5025 693.784 78.6811 693.784 89.1048V142.025H631.065V185.323C631.065 191.257 632.915 195.988 636.614 199.516C640.473 202.883 646.343 204.567 654.223 204.567C661.942 204.567 667.651 202.883 671.35 199.516C675.049 195.988 676.898 191.257 676.898 185.323V172.093ZM631.065 127.592H676.898V89.1048C676.898 83.0109 674.968 78.2802 671.109 74.9125C667.41 71.5449 661.621 69.861 653.741 69.861C646.021 69.861 640.312 71.5449 636.614 74.9125C632.915 78.2802 631.065 83.0109 631.065 89.1048V127.592Z" fill="#F29600"/>
<path d="M809.571 172.093H826.457V185.323C826.457 195.747 823.241 204.006 816.808 210.1C810.375 216.033 800.405 219 786.896 219C773.388 219 763.337 216.033 756.743 210.1C750.15 204.006 746.853 195.747 746.853 185.323V89.1048C746.853 78.6811 750.069 70.5025 756.502 64.569C762.935 58.4752 772.905 55.4282 786.414 55.4282C799.922 55.4282 809.973 58.4752 816.567 64.569C823.16 70.5025 826.457 78.6811 826.457 89.1048V111.957H809.571V89.1048C809.571 83.0109 807.642 78.2802 803.782 74.9125C800.083 71.5449 794.294 69.861 786.414 69.861C778.695 69.861 772.986 71.5449 769.287 74.9125C765.588 78.2802 763.739 83.0109 763.739 89.1048V185.323C763.739 191.257 765.588 195.988 769.287 199.516C773.147 202.883 779.016 204.567 786.896 204.567C794.615 204.567 800.324 202.883 804.023 199.516C807.722 195.988 809.571 191.257 809.571 185.323V172.093Z" fill="#F29600"/>
<path d="M931.446 59.0364V73.4692H895.262V188.691C895.262 193.021 896.388 196.79 898.64 199.997C900.891 203.044 904.268 204.567 908.771 204.567C913.113 204.567 916.329 203.044 918.42 199.997C920.671 196.79 921.797 193.021 921.797 188.691V160.066H938.683V187.729C938.683 198.153 935.869 206.01 930.24 211.303C924.772 216.434 917.616 219 908.771 219C899.926 219 892.609 216.434 886.82 211.303C881.191 206.01 878.377 198.153 878.377 187.729V59.0364H931.446Z" fill="#F29600"/>
<path d="M1052.03 215.392L1045.76 199.997C1042.54 205.61 1038.2 210.18 1032.73 213.708C1027.26 217.236 1021.15 219 1014.4 219C1005.88 219 999.041 217.557 993.895 214.67C988.749 211.623 985.05 207.534 982.799 202.402C980.708 197.271 979.663 191.578 979.663 185.323V161.269C979.663 154.854 980.708 149.161 982.799 144.19C985.05 139.058 988.749 135.049 993.895 132.163C999.041 129.116 1005.88 127.592 1014.4 127.592H1042.38V88.1426C1042.38 82.5298 1040.53 78.1198 1036.83 74.9125C1033.29 71.5449 1027.83 69.861 1020.43 69.861C1013.19 69.861 1007.81 71.5449 1004.27 74.9125C1000.73 78.1198 998.961 82.5298 998.961 88.1426V102.335H982.075V89.1048C982.075 78.5207 985.211 70.262 991.483 64.3285C997.754 58.395 1007.4 55.4282 1020.43 55.4282C1033.46 55.4282 1043.19 58.395 1049.62 64.3285C1056.05 70.262 1059.27 78.5207 1059.27 89.1048V215.392H1052.03ZM1042.38 142.025H1014.4C1007.16 142.025 1002.34 143.869 999.926 147.558C997.674 151.246 996.548 155.816 996.548 161.269V185.323C996.548 190.776 997.674 195.346 999.926 199.035C1002.34 202.723 1007.16 204.567 1014.4 204.567C1019.22 204.567 1023.65 203.284 1027.67 200.718C1031.85 198.153 1035.31 195.106 1038.04 191.578C1040.77 187.889 1042.22 184.441 1042.38 181.234V142.025Z" fill="#F29600"/>
<path d="M878.488 43H894.57V59.0364H878.488V43Z" fill="#F29600"/>
<path d="M867.231 59.0364H878.488V72.6674H867.231V59.0364Z" fill="#F29600"/>
</svg>
